<svg width="90" height="90" viewBox="0 0 90 90" fill="none" xmlns="http://www.w3.org/2000/svg">
<path d="M74.1321 25.8786C73.8164 25.5646 73.3034 25.6431 73.1455 25.9963C72.3562 27.5268 69.3173 32.5107 65.2918 32.55C64.9761 32.55 64.8577 32.1968 65.0945 32.0006C67.423 30.1169 75.0399 22.7391 69.5541 10.7306C69.5541 10.7306 69.0411 9.39632 69.2779 6.80625C69.5147 4.21618 68.6069 4.60862 68.6069 4.60862C68.6069 4.60862 68.2123 4.60862 68.2123 5.35424C68.2123 6.09987 68.2912 7.59112 67.5414 7.63036C67.1073 7.55188 66.9889 7.70885 66.3179 6.8455C65.6076 5.90365 64.2263 4.45164 62.174 3.23509C62.0951 3.19585 62.0162 3.15661 61.9372 3.11736C61.7399 2.99963 61.4637 3.07812 61.3058 3.27434C61.1479 3.47055 61.1874 3.74526 61.3847 3.94148C62.766 5.11878 67.8176 9.828 68.5675 16.0285C68.5675 16.0285 66.0811 15.0081 62.3714 15.9107C59.372 16.6564 57.2408 19.4427 57.3987 22.2289C57.4776 23.7202 58.5037 25.0545 59.964 25.4862C60.6349 25.6824 61.3058 25.7609 61.8583 25.7609C62.3714 25.7216 62.6871 25.4862 62.7266 25.1722C62.766 24.819 62.4898 24.5443 62.1346 24.5051C60.9901 24.3873 58.6616 23.8379 59.2536 21.2086C60.0429 17.7552 64.3447 17.559 65.3708 17.7552C66.3574 17.9514 69.3568 18.9325 68.3307 22.8961C68.0544 23.7594 65.5681 31.255 57.1619 32.5892C48.8346 33.8058 47.4533 26.1141 49.7029 21.9935C49.7029 21.9935 50.9263 19.6389 52.1892 18.2654C52.3471 18.0691 52.5839 17.8729 52.7417 17.6767C52.9391 17.4805 52.9391 17.1665 52.7812 16.9311C52.5839 16.6956 52.2682 16.6564 52.0314 16.8133C50.8079 17.6767 47.3744 20.3453 46.8219 24.3089C46.1115 29.175 47.256 31.4119 48.6373 33.5311C49.8213 35.3363 50.6895 36.9845 48.7952 38.672C48.0453 39.2214 47.4139 39.5353 45.4801 39.5746C43.5462 39.5353 42.9148 39.2214 42.1649 38.672C40.2706 36.9845 41.1388 35.3363 42.3228 33.5311C43.7041 31.4512 44.8486 29.175 44.1382 24.3089C43.5857 20.3453 40.1522 17.6375 38.9287 16.8133C38.6919 16.6564 38.3368 16.6956 38.1789 16.9311C38.021 17.1665 38.021 17.4805 38.2184 17.6767C38.3762 17.8729 38.613 18.0691 38.7709 18.2654C40.0338 19.5996 41.2572 21.9935 41.2572 21.9935C43.5068 26.0748 42.1255 33.8058 33.7193 32.4715C25.392 31.1372 22.8662 23.681 22.6294 22.7784C21.6428 18.7755 24.6027 17.8337 25.5893 17.6375C26.6549 17.4412 30.9567 17.6375 31.7065 21.0909C32.2985 23.7202 29.97 24.2696 28.8255 24.3873C28.4703 24.4266 28.2335 24.7405 28.2335 25.0545C28.273 25.3684 28.5887 25.6431 29.1018 25.6431C29.6543 25.6431 30.3252 25.5646 30.9961 25.3684C32.4564 24.9367 33.443 23.6025 33.5614 22.1112C33.7193 19.3249 31.5881 16.5386 28.5887 15.793C24.879 14.8904 22.3926 15.9107 22.3926 15.9107C23.1425 9.74951 28.1941 5.04029 29.5754 3.86299C29.7727 3.70602 29.8122 3.43131 29.6543 3.19585C29.4964 2.99963 29.2596 2.96039 29.0229 3.03888C28.9439 3.07812 28.865 3.11736 28.7861 3.15661C26.6944 4.37315 25.3525 5.82516 24.6422 6.76701C23.9712 7.66961 23.8528 7.51263 23.4187 7.55188C22.6689 7.51263 22.7478 5.98214 22.7478 5.27576C22.7478 4.53013 22.3532 4.53013 22.3532 4.53013C22.3532 4.53013 21.4849 4.17694 21.7217 6.76701C21.9585 9.35708 21.4454 10.6914 21.4454 10.6914C15.9992 22.7391 23.5766 30.0776 25.9051 32.0006C26.1419 32.1968 25.984 32.55 25.7077 32.55C21.6822 32.5107 18.6434 27.5268 17.8935 25.9963C17.6962 25.6431 17.2226 25.5254 16.9069 25.8786C16.749 26.0356 16.7096 26.2318 16.7885 26.428C18.8407 34.3944 25.984 35.1793 29.3386 35.3363C32.6932 35.5325 38.2184 35.768 39.4023 39.7708C40.5863 43.7736 37.0739 43.7736 37.0739 43.7736C32.7721 43.7736 33.1273 40.0847 33.1273 40.0847C36.0477 39.4568 37.6658 42.3216 37.6658 42.3216C37.8632 37.1807 30.4436 37.6516 30.4436 37.6516C29.4964 44.5977 34.7848 45.6181 37.7053 46.0105C44.4145 47.1093 43.5857 50.6805 43.5068 51.1907C41.3362 48.2866 39.0471 48.7183 38.5736 48.7183C38.4946 50.4058 38.8893 51.7008 39.9943 52.368C42.4017 53.8985 42.1649 56.4885 42.1649 56.4885L42.2439 59.8242C42.2833 61.5509 43.6646 62.9637 45.4011 63.0422C45.4406 63.0422 45.4801 63.0422 45.4801 63.0422C45.5195 63.0422 45.559 63.0422 45.559 63.0422C47.2955 62.9637 48.6768 61.5509 48.7162 59.8242L48.7952 56.4885C48.7952 56.4885 48.5584 53.8985 50.9658 52.368C52.0708 51.7008 52.4655 50.4058 52.3865 48.7183C51.913 48.7183 49.624 48.2474 47.4533 51.1907C47.3744 50.7197 46.5456 47.1093 53.2548 46.0105C56.1753 45.6181 61.4637 44.5977 60.5165 37.6516C60.5165 37.6516 53.0969 37.1807 53.2943 42.2824C53.2943 42.2824 54.9123 39.4176 57.8328 40.0455C57.8328 40.0455 58.2275 43.7344 53.8862 43.7344C53.8862 43.7344 50.3738 43.7344 51.5578 39.7315C52.7417 35.7287 58.2275 35.4933 61.6215 35.297C64.9761 35.1008 72.1194 34.3552 74.2111 26.3888C74.3295 26.2318 74.29 25.9963 74.1321 25.8786ZM45.559 61.6294C45.5195 61.6294 45.5195 61.6294 45.4801 61.6294C45.4406 61.6294 45.4406 61.6294 45.4011 61.6294C43.7041 61.6294 43.5462 60.1382 43.5462 59.5495C43.5462 59.4318 43.6252 59.3141 43.7436 59.2356C43.862 59.1963 43.9804 59.2356 44.0988 59.3141L44.2566 59.5103C44.4539 59.7457 44.7697 59.8635 45.0854 59.9027C45.4011 59.942 45.7168 59.9419 45.9931 59.8635C46.2299 59.8242 46.4667 59.7065 46.6246 59.5103L46.7824 59.3141C46.8613 59.2356 46.9797 59.1963 47.1376 59.2356C47.256 59.2748 47.3349 59.3925 47.3349 59.5495C47.4139 60.0989 47.256 61.6294 45.559 61.6294Z" fill="#D8D09E"/>
<path d="M13.2368 78.9757C13.1579 78.9757 13.0789 78.9365 13.0395 78.8972C13 78.8188 13 78.7403 13 78.6618C13 78.5048 13.0395 78.4263 13.1184 78.3871C13.1973 78.3871 13.2763 78.3478 13.3552 78.3478C13.6315 78.3478 13.8682 78.3086 13.9866 78.1909C14.105 78.0731 14.184 77.9554 14.2234 77.7984C14.2629 77.6415 14.2629 77.4845 14.2629 77.2883V71.9119C14.2629 71.7549 14.2629 71.5587 14.2234 71.4017C14.184 71.2448 14.105 71.127 13.9866 71.0093C13.8682 70.8916 13.6709 70.8523 13.3552 70.8523C13.2763 70.8523 13.1973 70.8523 13.1184 70.8131C13.0395 70.8131 13 70.6954 13 70.5384C13 70.4599 13 70.3814 13.0395 70.3422C13.0789 70.2637 13.1579 70.2637 13.2368 70.2637C13.5131 70.2637 13.7893 70.2637 14.0656 70.3029C14.3024 70.3029 14.5786 70.3029 14.8549 70.3029H16.7887C17.3018 70.3029 17.7359 70.3422 18.0516 70.4206C18.3673 70.4991 18.6041 70.6169 18.8409 70.7346C19.0777 70.8916 19.275 71.0878 19.3934 71.3625C19.5118 71.6372 19.5908 71.9119 19.5908 72.2258C19.5908 72.6183 19.5118 72.9715 19.3145 73.2462C19.1172 73.5209 18.8804 73.7563 18.6041 73.9133C18.3279 74.0703 18.0516 74.188 17.7753 74.2273V74.2665C18.2489 74.2665 18.6831 74.345 19.0383 74.5412C19.3934 74.7374 19.7092 74.9729 19.9065 75.2476C20.1433 75.5615 20.2222 75.8755 20.2617 76.2287C20.2617 76.7389 20.1828 77.1705 19.946 77.4845C19.7092 77.8377 19.3934 78.0731 19.0383 78.2694C18.6436 78.4656 18.2489 78.6225 17.8148 78.701C17.3807 78.7795 16.9466 78.8188 16.5519 78.8188H14.9338C14.6576 78.8188 14.3813 78.8188 14.1445 78.8188C13.8288 78.9365 13.5525 78.9365 13.2368 78.9757ZM15.5653 74.1095H16.1573C16.3546 74.1095 16.5519 74.1095 16.7887 74.0703C17.0255 74.0703 17.2228 73.9918 17.4596 73.9133C17.657 73.8348 17.8543 73.6779 17.9727 73.4424C18.0911 73.2069 18.17 72.893 18.17 72.5006C18.17 72.0296 18.0516 71.6372 17.8148 71.3233C17.578 71.0093 17.1834 70.8916 16.5519 70.8916H15.5653V74.1095ZM16.5519 78.3871C16.9466 78.3871 17.3412 78.3086 17.657 78.1909C18.0121 78.0731 18.2489 77.8377 18.4463 77.563C18.6436 77.249 18.762 76.8566 18.762 76.3464C18.7225 76.0717 18.6436 75.797 18.4857 75.5223C18.3279 75.2868 18.0516 75.0514 17.657 74.8944C17.2623 74.7374 16.7492 74.6589 16.1178 74.6589H15.5653V77.3667C15.5653 77.8377 15.6442 78.1124 15.7626 78.2301C15.9205 78.3478 16.1573 78.3871 16.5519 78.3871Z" fill="#D8D09E"/>
<path d="M24.6426 79.0933C24.0112 79.0933 23.4586 78.9364 22.985 78.6617C22.5115 78.3477 22.1563 77.9553 21.88 77.4844C21.6037 77.0134 21.4854 76.5033 21.4854 75.9539C21.4854 75.4045 21.5643 74.9335 21.7616 74.5411C21.9589 74.1094 22.1957 73.7955 22.5115 73.4815C22.8272 73.2068 23.1824 72.9714 23.5376 72.8536C23.8928 72.6967 24.2874 72.6182 24.6426 72.6182C25.2741 72.6182 25.8266 72.7751 26.3002 73.0498C26.7738 73.3638 27.1289 73.7562 27.4052 74.2271C27.6815 74.6981 27.7999 75.2082 27.7999 75.7576C27.7999 76.3071 27.7209 76.778 27.5236 77.1704C27.3263 77.6021 27.0895 77.916 26.7738 78.23C26.458 78.5047 26.1028 78.7402 25.7476 78.8579C25.353 79.0149 24.9978 79.0933 24.6426 79.0933ZM24.6426 78.5832C25.0767 78.5832 25.4319 78.4655 25.7082 78.1907C25.9844 77.916 26.1423 77.6021 26.2607 77.1704C26.3791 76.7387 26.4186 76.2678 26.4186 75.7969C26.4186 75.326 26.3791 74.8943 26.2607 74.5019C26.1423 74.1094 25.945 73.7955 25.6687 73.5208C25.3925 73.2853 25.0767 73.1676 24.6426 73.1676C24.2085 73.1676 23.8533 73.2853 23.577 73.56C23.3008 73.8347 23.1429 74.1487 23.0245 74.5803C22.9061 75.012 22.8667 75.4829 22.8667 75.9539C22.8667 76.4248 22.9061 76.8565 23.0245 77.2881C23.1429 77.6806 23.3402 78.0338 23.577 78.2692C23.8533 78.4654 24.2085 78.5832 24.6426 78.5832Z" fill="#D8D09E"/>
<path d="M29.6936 79.015C29.3384 79.015 29.0621 78.8973 28.7859 78.6226C28.5491 78.3479 28.4307 78.0732 28.4307 77.72C28.4307 77.4845 28.5096 77.2883 28.628 77.1313C28.7859 76.9744 28.9437 76.8959 29.1805 76.8959C29.3778 76.8959 29.4568 76.9351 29.4962 76.9744C29.4962 77.0136 29.4962 77.0529 29.4568 77.0921C29.4173 77.1313 29.4173 77.2098 29.4173 77.3276C29.4173 77.4453 29.4568 77.6023 29.5752 77.7592C29.6936 77.9162 29.8514 77.9947 30.0488 77.9947C30.2856 77.9947 30.4434 77.877 30.6013 77.6808C30.7591 77.4845 30.8381 77.2098 30.917 76.8959C30.9959 76.5819 31.0354 76.3072 31.0749 75.9933C31.1143 75.7186 31.1538 75.4831 31.1538 75.3261C31.1538 75.0907 31.1933 74.8552 31.1933 74.659C31.1933 74.4628 31.1933 74.2666 31.1933 74.1488C31.1933 73.9919 31.1933 73.8349 31.1538 73.6779C31.1538 73.5209 31.0749 73.4425 30.9959 73.3247C30.917 73.2462 30.7197 73.207 30.4829 73.207C30.4039 73.207 30.325 73.207 30.2856 73.1678C30.2461 73.1678 30.2066 73.0893 30.1672 72.9323C30.1672 72.8538 30.1672 72.7753 30.2066 72.6968C30.2461 72.6183 30.2856 72.5791 30.3645 72.5791C30.6407 72.5791 30.8775 72.5791 31.0749 72.6183C31.2722 72.6183 31.509 72.6183 31.7458 72.6183H34.4295C34.6662 72.6183 34.903 72.6183 35.1398 72.6183C35.3766 72.6183 35.6134 72.6183 35.8502 72.5791C35.9291 72.5791 35.9686 72.6183 36.0081 72.6968C36.0475 72.7753 36.0475 72.8538 36.0475 72.9323C36.0475 73.05 36.0081 73.1285 35.9291 73.1678C35.8897 73.1678 35.8107 73.207 35.7318 73.207C35.495 73.207 35.2977 73.2462 35.2188 73.3247C35.1398 73.4032 35.0609 73.5209 35.0609 73.6779C35.0609 73.8349 35.0214 73.9526 35.0214 74.1488V77.4453C35.0214 77.6023 35.0214 77.7592 35.0609 77.877C35.0609 78.0339 35.1398 78.1517 35.2188 78.2302C35.2977 78.3087 35.495 78.3479 35.7318 78.3479C35.8107 78.3479 35.8897 78.3479 35.9291 78.3871C35.9686 78.3871 36.0081 78.4656 36.0475 78.6226C36.0475 78.7011 36.0475 78.7403 36.0081 78.8188C35.9686 78.8581 35.9291 78.8973 35.8502 78.8973C35.574 78.8973 35.3372 78.8581 35.1398 78.8581C34.903 78.8581 34.7057 78.8581 34.4295 78.8581C34.1927 78.8581 33.9953 78.8581 33.798 78.8581C33.6007 78.8581 33.4033 78.8581 33.1271 78.8973C33.0482 78.8973 33.0087 78.8581 32.9692 78.8188C32.9298 78.7796 32.9298 78.7011 32.9298 78.6226C32.9298 78.5049 32.9692 78.4264 33.0087 78.3871C33.0482 78.3871 33.1271 78.3479 33.206 78.3479C33.4428 78.3479 33.5612 78.3087 33.6401 78.2694C33.7191 78.1909 33.7585 78.0732 33.7585 77.9555C33.7585 77.7985 33.7585 77.6415 33.7585 77.4453V73.1285H32.4167C32.1799 73.1285 32.022 73.1678 31.9036 73.2462C31.7852 73.3247 31.7458 73.4425 31.7458 73.5994C31.7458 73.7564 31.7458 73.8741 31.7063 74.0311C31.7063 74.3451 31.6669 74.7375 31.6669 75.1299C31.6274 75.5224 31.5879 75.9148 31.5485 76.268C31.509 76.5427 31.4301 76.8566 31.3906 77.1313C31.3117 77.4453 31.1933 77.72 31.0749 77.9947C30.917 78.2694 30.7197 78.5049 30.4829 78.6618C30.3645 78.9365 30.0882 79.015 29.6936 79.015Z" fill="#D8D09E"/>
<path d="M37.3506 78.9752C37.2717 78.9752 37.2323 78.936 37.1928 78.8968C37.1533 78.8575 37.1533 78.779 37.1533 78.7005C37.1533 78.5828 37.1928 78.5043 37.2323 78.4651C37.2717 78.4651 37.3506 78.4258 37.469 78.4258C37.7058 78.4258 37.9032 78.3866 37.9821 78.3081C38.061 78.2296 38.14 78.1119 38.14 77.9549C38.14 77.7979 38.14 77.6802 38.14 77.5232V74.1875C38.14 74.0306 38.14 73.8736 38.14 73.7166C38.14 73.5596 38.061 73.4812 37.9821 73.3634C37.9032 73.2849 37.7058 73.2457 37.469 73.2457C37.3901 73.2457 37.3112 73.2457 37.2323 73.2064C37.1928 73.2064 37.1533 73.128 37.1533 72.971C37.1533 72.8925 37.1533 72.8533 37.1928 72.7748C37.2323 72.7355 37.2717 72.6963 37.3506 72.6963C37.6269 72.6963 37.8637 72.6963 38.061 72.7355C38.2978 72.7355 38.4952 72.7355 38.7319 72.7355C38.9687 72.7355 39.1661 72.7355 39.3634 72.7355C39.5607 72.7355 39.7975 72.7355 40.0343 72.6963C40.1132 72.6963 40.1527 72.7355 40.1922 72.7748C40.2316 72.814 40.2316 72.8925 40.2316 72.971C40.2316 73.0887 40.1922 73.1672 40.1132 73.2064C40.0343 73.2064 39.9948 73.2457 39.9159 73.2457C39.6791 73.2457 39.5607 73.2849 39.4818 73.3242C39.4029 73.4027 39.3634 73.5204 39.3634 73.6381C39.3634 73.7951 39.3634 73.9521 39.3239 74.1483V74.9332C39.4423 74.9332 39.5607 74.9332 39.6397 74.9332C39.7186 74.9332 39.837 74.9332 39.9159 74.9332C40.0343 74.9332 40.1527 74.9332 40.35 74.9332C41.2578 74.9332 41.9681 75.0901 42.4812 75.4041C42.9942 75.718 43.2705 76.2282 43.2705 76.8953C43.2705 77.3663 43.1521 77.7587 42.8758 78.0726C42.5996 78.3866 42.2839 78.5828 41.8892 78.7398C41.4945 78.8968 41.0604 78.936 40.6263 78.936H38.6925C38.4557 78.936 38.2189 78.936 38.0216 78.936C37.8637 78.936 37.6269 78.936 37.3506 78.9752ZM40.3895 78.5436C40.9026 78.5436 41.2972 78.3866 41.5735 78.0726C41.8497 77.7587 41.9681 77.4055 41.9681 76.9738C41.9681 76.6991 41.8892 76.4244 41.7708 76.189C41.6524 75.9535 41.4551 75.718 41.2183 75.5611C40.9815 75.4041 40.6658 75.3256 40.2711 75.3256C40.0343 75.3256 39.8765 75.3256 39.7186 75.3648C39.5607 75.3648 39.4423 75.4041 39.4029 75.4041V77.9549C39.4029 78.1511 39.4818 78.3081 39.6397 78.3866C39.7581 78.5043 39.9949 78.5436 40.3895 78.5436Z" fill="#D8D09E"/>
<path d="M44.4151 78.9752C44.3362 78.9752 44.2967 78.936 44.2572 78.8968C44.2178 78.8575 44.2178 78.779 44.2178 78.7005C44.2178 78.5828 44.2572 78.5043 44.2967 78.4651C44.3362 78.4651 44.4151 78.4258 44.5335 78.4258C44.7703 78.4258 44.9676 78.3866 45.0466 78.3081C45.1255 78.2296 45.2044 78.1119 45.2044 77.9549C45.2044 77.7979 45.2044 77.6802 45.2044 77.5232V74.1875C45.2044 74.0306 45.2044 73.8736 45.2044 73.7166C45.2044 73.5596 45.1255 73.4812 45.0466 73.3634C44.9676 73.2849 44.7703 73.2457 44.5335 73.2457C44.4546 73.2457 44.3756 73.2457 44.2967 73.2064C44.2572 73.2064 44.2178 73.128 44.2178 72.971C44.2178 72.8925 44.2178 72.8533 44.2572 72.7748C44.2967 72.7355 44.3362 72.6963 44.4151 72.6963C44.6914 72.6963 44.9282 72.6963 45.1255 72.7355C45.3623 72.7355 45.5596 72.7355 45.8359 72.7355C46.0727 72.7355 46.27 72.7355 46.4673 72.7355C46.6646 72.7355 46.862 72.7355 47.1382 72.6963C47.2172 72.6963 47.2566 72.7355 47.2961 72.7748C47.3356 72.814 47.3356 72.8925 47.3356 72.971C47.3356 73.0887 47.2961 73.1672 47.2172 73.2064C47.1382 73.2064 47.0988 73.2457 47.0198 73.2457C46.783 73.2457 46.6646 73.2849 46.5857 73.3242C46.5068 73.4027 46.4673 73.5204 46.4673 73.6381C46.4673 73.7951 46.4673 73.9521 46.4279 74.1483V75.3648H49.3483V74.1483C49.3483 73.9521 49.3483 73.7951 49.3483 73.6381C49.3483 73.4812 49.3088 73.4027 49.2299 73.3242C49.151 73.2457 48.9931 73.2065 48.7958 73.2457C48.7169 73.2457 48.6379 73.2457 48.5985 73.2064C48.559 73.2064 48.5195 73.128 48.5195 72.971C48.5195 72.8925 48.5195 72.8533 48.559 72.7748C48.5985 72.7355 48.6379 72.6963 48.7169 72.6963C48.9931 72.6963 49.1905 72.6963 49.3878 72.7355C49.5851 72.7355 49.7824 72.7355 50.0192 72.7355C50.256 72.7355 50.4928 72.7355 50.7296 72.7355C50.9664 72.7355 51.2032 72.7355 51.44 72.6963C51.5189 72.6963 51.5584 72.7355 51.5979 72.7748C51.6373 72.814 51.6373 72.8925 51.6373 72.971C51.6373 73.0887 51.5979 73.1672 51.5189 73.2064C51.4795 73.2064 51.4005 73.2457 51.3216 73.2457C51.0848 73.2457 50.8875 73.2849 50.8085 73.3634C50.7296 73.4419 50.6507 73.5596 50.6507 73.7166C50.6507 73.8736 50.6112 73.9913 50.6112 74.1875V77.5232C50.6112 77.6802 50.6112 77.8372 50.6507 77.9549C50.6507 78.1119 50.7296 78.2296 50.8085 78.3081C50.8875 78.3866 51.0848 78.4258 51.3216 78.4258C51.4005 78.4258 51.4795 78.4258 51.5189 78.4651C51.5584 78.4651 51.5979 78.5436 51.6373 78.7005C51.6373 78.779 51.6373 78.8183 51.5979 78.8968C51.5584 78.936 51.5189 78.9752 51.44 78.9752C51.1637 78.9752 50.9269 78.936 50.7296 78.936C50.4928 78.936 50.2955 78.936 50.0192 78.936C49.7824 78.936 49.5851 78.936 49.3878 78.936C49.1905 78.936 48.9537 78.936 48.7169 78.9752C48.6379 78.9752 48.5985 78.936 48.559 78.8968C48.5195 78.8575 48.5195 78.779 48.5195 78.7005C48.5195 78.5828 48.559 78.5043 48.5985 78.4651C48.6379 78.4651 48.7169 78.4258 48.7958 78.4258C49.0326 78.4258 49.151 78.3866 49.2299 78.3474C49.3088 78.2689 49.3483 78.1511 49.3483 78.0334C49.3483 77.8764 49.3483 77.7195 49.3483 77.5232V75.9535H46.4279V77.5232C46.4279 77.7195 46.4279 77.8764 46.4673 78.0334C46.4673 78.1904 46.5068 78.2689 46.5857 78.3474C46.6646 78.4258 46.8225 78.4651 47.0198 78.4258C47.0988 78.4258 47.1777 78.4258 47.2172 78.4651C47.2566 78.4651 47.2961 78.5436 47.3356 78.7005C47.3356 78.779 47.3356 78.8183 47.2961 78.8968C47.2566 78.936 47.2172 78.9752 47.1382 78.9752C46.9014 78.9752 46.6646 78.936 46.4673 78.936C46.27 78.936 46.0727 78.936 45.8359 78.936C45.5991 78.936 45.3623 78.936 45.1255 78.936C44.8887 78.936 44.6519 78.936 44.4151 78.9752Z" fill="#D8D09E"/>
<path d="M52.7423 78.9752C52.6633 78.9752 52.6239 78.936 52.5844 78.8968C52.5449 78.8575 52.5449 78.779 52.5449 78.7005C52.5449 78.5828 52.5844 78.5043 52.6239 78.4651C52.6633 78.4651 52.7423 78.4258 52.8606 78.4258C53.0974 78.4258 53.2948 78.3866 53.3737 78.3081C53.4526 78.2296 53.5316 78.1119 53.5316 77.9549C53.5316 77.7979 53.5316 77.6802 53.5316 77.5232V74.1875C53.5316 74.0306 53.5316 73.8736 53.5316 73.7166C53.5316 73.5596 53.4526 73.4812 53.3737 73.3634C53.2948 73.2849 53.0974 73.2457 52.8606 73.2457C52.7817 73.2457 52.7028 73.2457 52.6239 73.2064C52.5844 73.2064 52.5449 73.128 52.5449 72.971C52.5449 72.8925 52.5449 72.8533 52.5844 72.7748C52.6239 72.7355 52.6633 72.6963 52.7423 72.6963C53.0185 72.6963 53.2553 72.6963 53.4526 72.7355C53.6894 72.7355 53.8868 72.7355 54.163 72.7355C54.3998 72.7355 54.5971 72.7355 54.7945 72.7355C54.9918 72.7355 55.1891 72.7355 55.4654 72.6963C55.5443 72.6963 55.5838 72.7355 55.6232 72.7748C55.6627 72.814 55.6627 72.8925 55.6627 72.971C55.6627 73.0887 55.6232 73.1672 55.5443 73.2064C55.4654 73.2064 55.4259 73.2457 55.347 73.2457C55.1102 73.2457 54.9918 73.2849 54.9129 73.3242C54.8339 73.4027 54.7945 73.5204 54.7945 73.6381C54.7945 73.7951 54.7945 73.9521 54.755 74.1483V77.327L57.3597 73.8343C57.7149 73.3634 58.0307 73.0887 58.3069 72.971C58.5832 72.8533 58.7805 72.7748 58.9778 72.7355L59.5698 72.6963C59.6487 72.6963 59.6882 72.7355 59.7277 72.7748C59.7671 72.814 59.7671 72.8925 59.7671 72.971C59.7671 73.0887 59.7277 73.1672 59.6487 73.2064C59.5698 73.2064 59.5304 73.2457 59.4514 73.2457C59.2146 73.2457 59.0173 73.2849 58.9384 73.3634C58.8594 73.4419 58.7805 73.5596 58.7805 73.7166C58.7805 73.8736 58.741 73.9913 58.741 74.1875V77.5232C58.741 77.6802 58.741 77.8372 58.7805 77.9549C58.7805 78.1119 58.8594 78.2296 58.9384 78.3081C59.0173 78.3866 59.2146 78.4258 59.4514 78.4258C59.5304 78.4258 59.6093 78.4258 59.6487 78.4651C59.6882 78.4651 59.7277 78.5436 59.7671 78.7005C59.7671 78.779 59.7671 78.8183 59.7277 78.8968C59.6882 78.936 59.6487 78.9752 59.5698 78.9752C59.2936 78.9752 59.0568 78.936 58.8594 78.936C58.6226 78.936 58.4253 78.936 58.1491 78.936C57.9123 78.936 57.7149 78.936 57.5176 78.936C57.3203 78.936 57.0835 78.936 56.8467 78.9752C56.7678 78.9752 56.7283 78.936 56.6888 78.8968C56.6494 78.8575 56.6494 78.779 56.6494 78.7005C56.6494 78.5828 56.6888 78.5043 56.7283 78.4651C56.7678 78.4651 56.8467 78.4258 56.9256 78.4258C57.1624 78.4258 57.2808 78.3866 57.3597 78.3474C57.4387 78.2689 57.4781 78.1511 57.4781 78.0334C57.4781 77.8764 57.4781 77.7195 57.4781 77.5232V74.5015L54.8734 77.9942C54.5971 78.3474 54.3209 78.5828 54.0446 78.7005C53.7684 78.8183 53.5316 78.8968 53.3342 78.936C53.2158 78.936 53.0974 78.936 53.0185 78.9752C52.979 78.9752 52.8606 78.9752 52.7423 78.9752Z" fill="#D8D09E"/>
<path d="M63.5161 81.9579C63.3977 81.9579 63.2793 81.8795 63.2398 81.7225C63.2004 81.5655 63.1609 81.4478 63.1609 81.2908C63.1609 80.8591 63.2793 80.5452 63.5556 80.3097C63.8318 80.0742 64.187 79.9565 64.6211 79.9565C64.9763 79.9565 65.2921 80.035 65.5683 80.1527C65.8446 80.2705 66.1603 80.4274 66.476 80.5452C66.7918 80.6629 67.1075 80.7414 67.4232 80.7806C67.6995 80.7806 67.8968 80.6629 68.0547 80.4667C68.2125 80.2705 68.2915 80.035 68.2915 79.7995C68.2915 79.5641 68.2125 79.3679 68.0547 79.1716C67.8968 78.9754 67.6995 78.8969 67.3837 78.8969H62.4505C62.2137 78.8969 61.9769 78.8969 61.7401 78.8969C61.5034 78.8969 61.2666 78.8969 61.0298 78.9362C60.9508 78.9362 60.9114 78.8969 60.8719 78.8577C60.8324 78.7792 60.793 78.74 60.793 78.6615C60.793 78.5438 60.8324 78.4653 60.9114 78.426C60.9508 78.426 61.0298 78.3868 61.1087 78.3868C61.3455 78.3868 61.5428 78.3475 61.6217 78.269C61.7007 78.1906 61.7796 78.0728 61.7796 77.9159C61.7796 77.7589 61.8191 77.6412 61.8191 77.4842V74.1485C61.8191 73.9915 61.8191 73.8345 61.7796 73.6776C61.7401 73.5206 61.7007 73.4421 61.5823 73.3244C61.4639 73.2459 61.306 73.2066 61.1087 73.2066C61.0298 73.2066 60.9508 73.2066 60.9114 73.1674C60.8719 73.1674 60.8324 73.0889 60.793 72.9319C60.793 72.8534 60.8324 72.8142 60.8719 72.7357C60.9114 72.6965 60.9508 72.6572 61.0298 72.6572C61.306 72.6572 61.5428 72.6572 61.7401 72.6965C61.9769 72.6965 62.1743 72.6965 62.4505 72.6965C62.6873 72.6965 62.8847 72.6965 63.0425 72.6965C63.2004 72.6965 63.4372 72.6965 63.674 72.6572C63.7529 72.6572 63.7924 72.6965 63.8318 72.7357C63.8713 72.775 63.8713 72.8534 63.8713 72.9319C63.8713 73.0497 63.8318 73.1281 63.7924 73.1674C63.7529 73.1674 63.674 73.2066 63.595 73.2066C63.3188 73.2066 63.1609 73.2459 63.1214 73.4421C63.082 73.5991 63.082 73.8345 63.0425 74.1485V77.4842C63.0425 77.7981 63.082 77.9943 63.1214 78.1906C63.1609 78.3475 63.3582 78.426 63.6345 78.426H65.9235V74.1877C65.9235 74.0307 65.9235 73.8738 65.9235 73.7168C65.9235 73.5598 65.884 73.4813 65.7656 73.3636C65.6472 73.2459 65.5289 73.2459 65.2921 73.2459C65.2131 73.2459 65.1342 73.2459 65.0947 73.2066C65.0553 73.2066 65.0158 73.1281 64.9763 72.9712C64.9763 72.8927 64.9763 72.8534 65.0158 72.775C65.0553 72.6965 65.0947 72.6965 65.1737 72.6965C65.4499 72.6965 65.6472 72.6965 65.8446 72.7357C66.0419 72.7357 66.2787 72.7357 66.5155 72.7357C66.7523 72.7357 66.9496 72.7357 67.1469 72.7357C67.3443 72.7357 67.5416 72.7357 67.8179 72.6965C67.8968 72.6965 67.9363 72.7357 67.9757 72.775C68.0152 72.8142 68.0152 72.8927 68.0152 72.9712C68.0152 73.0889 67.9757 73.1674 67.8968 73.2066C67.8573 73.2066 67.7784 73.2459 67.6995 73.2459C67.4232 73.2459 67.2653 73.2851 67.1864 73.4813C67.1469 73.6383 67.1075 73.8738 67.1075 74.1877V77.5234C67.1075 77.7981 67.1864 78.0336 67.2653 78.1513C67.3837 78.269 67.5021 78.3868 67.66 78.4653C67.8179 78.5438 67.9757 78.6222 68.1336 78.7007C68.2915 78.7792 68.4098 78.8969 68.5282 79.0539C68.6466 79.2109 68.6861 79.4464 68.7256 79.7995C68.7256 80.1135 68.6466 80.4274 68.4888 80.7414C68.3309 81.0553 68.0941 81.2908 67.7784 81.487C67.4627 81.6832 67.068 81.801 66.5944 81.801C66.2392 81.801 65.963 81.7225 65.6472 81.5655C65.3315 81.4085 65.0947 81.2908 64.8185 81.1731C64.5422 81.0161 64.3054 80.9376 64.0292 80.9376C63.8318 80.9376 63.674 80.9376 63.5556 81.0553C63.4372 81.1338 63.3977 81.2516 63.3977 81.4085C63.3977 81.487 63.4372 81.5655 63.5161 81.644C63.595 81.6832 63.6345 81.7617 63.6345 81.801C63.7529 81.8794 63.674 81.9579 63.5161 81.9579Z" fill="#D8D09E"/>
<path d="M69.1206 78.9757C69.0416 78.9757 68.9627 78.9365 68.9233 78.8972C68.8838 78.8188 68.8838 78.7795 68.8838 78.701C68.8838 78.5441 68.9232 78.4656 69.0022 78.4263C69.0811 78.4263 69.16 78.3871 69.239 78.3871C69.4758 78.3871 69.6731 78.3478 69.7915 78.2301C69.9099 78.1124 70.0283 77.9946 70.1072 77.8377C70.1862 77.6807 70.2651 77.5237 70.344 77.3275L72.712 71.7157C72.7909 71.4802 72.8304 71.3233 72.7514 71.2055C72.712 71.0878 72.5936 71.0093 72.4752 70.9701C72.3568 70.9308 72.1989 70.8916 72.041 70.8523C71.9226 70.8131 71.8042 70.8131 71.7648 70.7738C71.7253 70.7346 71.6858 70.6561 71.6858 70.5384C71.6858 70.3814 71.7253 70.3029 71.8437 70.3029C71.9621 70.3029 72.0805 70.2637 72.2384 70.2637C72.5936 70.2637 72.9093 70.3029 73.1855 70.3814C73.4618 70.4599 73.6591 70.5776 73.8565 70.8131C74.0538 71.0093 74.2117 71.3233 74.3695 71.7157L76.6585 77.3275C76.7375 77.4845 76.7769 77.6415 76.8559 77.7984C76.9348 77.9554 77.0137 78.1124 77.1321 78.1909C77.2505 78.3086 77.4084 78.3478 77.6057 78.3478C77.7241 78.3478 77.803 78.3478 77.8425 78.3871C77.882 78.3871 77.9214 78.5048 77.9609 78.6618C77.9609 78.7403 77.9214 78.8188 77.882 78.858C77.8425 78.9365 77.7636 78.9365 77.6846 78.9365C77.4084 78.9365 77.1321 78.8972 76.9348 78.8972C76.698 78.8972 76.4612 78.8972 76.1849 78.8972C75.6324 78.8972 75.0799 78.8972 74.4879 78.9365C74.409 78.9365 74.3301 78.8972 74.2906 78.858C74.2511 78.7795 74.2511 78.7403 74.2511 78.6618C74.2511 78.5048 74.2906 78.4263 74.3695 78.3871C74.4484 78.3871 74.5274 78.3478 74.6063 78.3478C75.0404 78.3478 75.2772 78.2693 75.3167 78.1124C75.3562 77.9554 75.3167 77.6807 75.1983 77.3275L74.7247 76.1894H71.3701C71.2517 76.5426 71.1333 76.7781 71.0939 76.9351C71.0544 77.092 71.0149 77.1705 70.9755 77.249C70.9755 77.2883 70.936 77.3275 70.936 77.3275C70.8176 77.6414 70.7781 77.8769 70.7781 77.9946C70.7781 78.1516 70.8571 78.2301 71.0149 78.2694C71.1728 78.3086 71.4096 78.3478 71.7648 78.3478C71.8832 78.3478 71.9621 78.3478 72.0016 78.3871C72.041 78.3871 72.0805 78.5048 72.12 78.6618C72.12 78.7403 72.0805 78.8188 72.041 78.858C72.0016 78.9365 71.9226 78.9365 71.8437 78.9365C71.5675 78.9365 71.2912 78.8972 71.0939 78.8972C70.8965 78.8972 70.6203 78.8972 70.3835 78.8972C70.1862 78.8972 70.0678 78.8972 69.9099 78.8972C69.7915 78.8972 69.6731 78.8972 69.5547 78.8972C69.4758 78.9365 69.3179 78.9365 69.1206 78.9757ZM71.6858 75.64H74.5668L73.1855 72.1474H73.1461L71.6858 75.64Z" fill="#D8D09E"/>
<path d="M34.5877 85.6077H33.7195V83.6455H33.2854V85.6077H32.4171V83.6455H32.0225V85.9609H34.9824V83.6455H34.5877V85.6077Z" fill="#D8D09E"/>
<path d="M41.8498 83.6455L40.7842 85.9609H41.2183L41.4551 85.4115H42.6391L42.8759 85.9609H43.31L42.2444 83.6455H41.8498ZM41.6524 85.0975L42.0865 84.0772L42.5207 85.0975H41.6524Z" fill="#D8D09E"/>
<path d="M49.3875 84.6261C49.3875 84.8615 49.348 85.0185 49.348 85.1755C49.3085 85.3324 49.2691 85.4502 49.2296 85.5287C49.1902 85.6071 49.1112 85.6464 48.9928 85.6464C48.9534 85.6464 48.9139 85.6464 48.8744 85.6464L48.835 86.0388C48.8744 86.0388 48.9139 86.0388 48.9534 86.0781C48.9928 86.0781 49.0323 86.0781 49.0718 86.0781C49.1902 86.0781 49.3085 86.0388 49.3875 85.9996C49.4664 85.9211 49.5453 85.8426 49.5848 85.7249C49.6243 85.6071 49.6637 85.4502 49.7032 85.2932C49.7427 85.1362 49.7427 84.9008 49.7427 84.7045L49.7821 84.1159H50.6898V86.0781H51.124V83.7627H49.4269L49.3875 84.6261Z" fill="#D8D09E"/>
<path d="M57.6749 85.6077V84.9798H58.8194V84.6266H57.6749V84.0379H58.9773V83.6455H57.2803V85.9609H59.0168V85.6077H57.6749Z" fill="#D8D09E"/>
</svg>
