<svg width="34" height="16" viewBox="0 0 34 16" fill="none" xmlns="http://www.w3.org/2000/svg">
<path d="M1 9C0.447715 9 -4.82823e-08 8.55228 0 8C4.82823e-08 7.44772 0.447715 7 1 7L1 9ZM33.7071 7.2929C34.0976 7.68342 34.0976 8.31659 33.7071 8.70711L27.3431 15.0711C26.9526 15.4616 26.3195 15.4616 25.9289 15.0711C25.5384 14.6805 25.5384 14.0474 25.9289 13.6569L31.5858 8L25.9289 2.34315C25.5384 1.95262 25.5384 1.31946 25.9289 0.928934C26.3195 0.53841 26.9526 0.53841 27.3431 0.928934L33.7071 7.2929ZM1 7L33 7L33 9L1 9L1 7Z" fill="#1A1919"/>
</svg>
