<svg width="34" height="16" viewBox="0 0 34 16" fill="none" xmlns="http://www.w3.org/2000/svg">
<path d="M1 8.7C0.613401 8.7 0.3 8.3866 0.3 8C0.3 7.6134 0.613401 7.3 1 7.3L1 8.7ZM33.495 7.50503C33.7683 7.7784 33.7683 8.22161 33.495 8.49498L29.0402 12.9498C28.7668 13.2231 28.3236 13.2231 28.0503 12.9497C27.7769 12.6764 27.7769 12.2332 28.0503 11.9598L32.01 8L28.0503 4.0402C27.7769 3.76684 27.7769 3.32362 28.0503 3.05025C28.3236 2.77689 28.7668 2.77689 29.0402 3.05025L33.495 7.50503ZM1 7.3L33 7.3L33 8.7L1 8.7L1 7.3Z" fill="#D8D09E"/>
</svg>
