<svg width="18" height="18" viewBox="0 0 18 18" fill="none" xmlns="http://www.w3.org/2000/svg">
<path d="M1 8.3C0.613401 8.3 0.3 8.6134 0.3 9C0.3 9.3866 0.613401 9.7 1 9.7V8.3ZM17.495 9.49497C17.7683 9.22161 17.7683 8.77839 17.495 8.50503L13.0402 4.05025C12.7668 3.77689 12.3236 3.77689 12.0503 4.05025C11.7769 4.32362 11.7769 4.76684 12.0503 5.0402L16.0101 9L12.0503 12.9598C11.7769 13.2332 11.7769 13.6764 12.0503 13.9497C12.3236 14.2231 12.7668 14.2231 13.0402 13.9497L17.495 9.49497ZM1 9.7H17V8.3H1V9.7Z" fill="#D8D09E"/>
</svg>
