<svg width="40" height="40" viewBox="0 0 40 40" fill="none" xmlns="http://www.w3.org/2000/svg">
<g clip-path="url(#clip0_740_3355)">
<path d="M18.3281 -0.1875H21.6714V13.8226H18.3281V-0.1875Z" stroke="#D8D09E" stroke-width="1.4" stroke-miterlimit="10" stroke-linecap="round" stroke-linejoin="round"/>
<path d="M14.9856 27.8456V30.6315M14.9856 21.4375V24.1308M11.6431 27.8456L11.6423 30.6315M11.6423 21.4375L11.6431 24.1308M21.6721 27.8456V30.6315M21.6721 21.4375V24.1308M18.3289 27.8456V30.6315M18.3289 21.4375V24.1308M25.0154 27.8456V30.6315M25.0154 21.4375V24.1308M28.3587 27.8456V30.6315M28.3587 21.4375V24.1308M9.9707 13.8223H30.0303V18.0942H9.9707V13.8223Z" stroke="#D8D09E" stroke-width="1.4" stroke-miterlimit="10" stroke-linecap="round" stroke-linejoin="round"/>
</g>
<rect x="0.7" y="0.7" width="38.6" height="38.6" rx="19.3" stroke="#D8D09E" stroke-width="1.4"/>
<defs>
<clipPath id="clip0_740_3355">
<rect width="40" height="40" rx="20" fill="white"/>
</clipPath>
</defs>
</svg>
