<svg width="40" height="40" viewBox="0 0 40 40" fill="none" xmlns="http://www.w3.org/2000/svg">
<rect x="0.7" y="0.7" width="38.6" height="38.6" rx="19.3" stroke="#D8D09E" stroke-width="1.4"/>
<path d="M12.4004 37.4531L12.4004 32.3796" stroke="#D8D09E" stroke-width="1.4" stroke-miterlimit="10" stroke-linecap="round" stroke-linejoin="round"/>
<path d="M27.5996 37.4531L27.5996 32.3796" stroke="#D8D09E" stroke-width="1.4" stroke-miterlimit="10" stroke-linecap="round" stroke-linejoin="round"/>
<path d="M27.9667 19.3944V13.1381C27.9667 11.3388 26.6291 10.0012 24.9792 10.0012H15.0207C13.3708 10.0012 12.0332 11.3388 12.0332 12.9887V19.3945" stroke="#D8D09E" stroke-width="1.4" stroke-miterlimit="10" stroke-linecap="round" stroke-linejoin="round"/>
<path d="M26.1071 27.8008H13.8945V23.8174H26.1071V27.8008Z" stroke="#D8D09E" stroke-width="1.4" stroke-miterlimit="10" stroke-linecap="round" stroke-linejoin="round"/>
<path d="M31.9904 21.8912C31.8744 20.4361 30.6847 19.2749 29.2274 19.191C27.5632 19.0952 26.1773 20.3812 26.1094 22.0079H26.1063V27.8003H13.8937V22.0079H13.8906C13.8226 20.3812 12.4368 19.0952 10.7726 19.191C9.31525 19.2749 8.12556 20.4361 8.00965 21.8912C7.90523 23.2014 8.65874 24.3489 9.76811 24.8338V30.3892C9.76811 31.4892 10.6598 32.3809 11.7598 32.3809H12.0334H27.9669H28.2402C29.3402 32.3809 30.2319 31.4892 30.2319 30.3892V24.8338C31.3412 24.3489 32.0947 23.2014 31.9904 21.8912Z" stroke="#D8D09E" stroke-width="1.4" stroke-miterlimit="10" stroke-linecap="round" stroke-linejoin="round"/>
</svg>
