<svg width="32" height="32" viewBox="0 0 32 32" fill="none" xmlns="http://www.w3.org/2000/svg">
<rect x="0.7" y="0.7" width="30.6" height="30.6" rx="15.3" stroke="#D8D09E" stroke-width="1.4"/>
<path d="M16.2017 7.00195C12.3408 7.00195 9.21101 10.1318 9.21094 13.9927C9.21094 19.5905 15.5303 24.7747 15.5303 24.7747C15.8996 25.0777 16.5038 25.0777 16.8731 24.7747C16.8731 24.7747 23.1925 19.5905 23.1925 13.9927C23.1925 10.1318 20.0626 7.00195 16.2017 7.00195Z" stroke="#D8D09E" stroke-width="1.4" stroke-miterlimit="10"/>
<path d="M19.2031 14C19.2031 15.6569 17.86 17 16.2031 17C14.5463 17 13.2031 15.6569 13.2031 14C13.2031 12.3431 14.5463 11 16.2031 11C17.86 11 19.2031 12.3431 19.2031 14Z" stroke="#D8D09E" stroke-width="1.4" stroke-miterlimit="10"/>
</svg>
