<svg width="40" height="40" viewBox="0 0 40 40" fill="none" xmlns="http://www.w3.org/2000/svg">
<g clip-path="url(#clip0_740_3361)">
<path d="M13.174 12.962C15.6593 8.6574 21.1636 7.18252 25.4683 9.6678C29.7729 12.1531 31.2478 17.6574 28.7625 21.962L16.6875 42.8765C15.859 44.3115 14.0243 44.8031 12.5894 43.9746L2.19712 37.9746C0.762201 37.1462 0.270592 35.3115 1.09904 33.8765L8.29904 21.4058C9.12749 19.9709 10.9622 19.4792 12.3971 20.3077L18.8923 24.0577C20.3272 24.8861 22.1619 24.3945 22.9904 22.9596L24.8654 19.712C26.108 17.5597 25.3706 14.8075 23.2183 13.5649C21.066 12.3223 18.3138 13.0597 17.0712 15.212C16.4499 16.2881 15.0737 16.6569 13.9976 16.0356C12.9215 15.4143 12.5527 14.0381 13.174 12.962Z" stroke="#D8D09E" stroke-width="1.4" stroke-miterlimit="10" stroke-linecap="round" stroke-linejoin="round"/>
</g>
<rect x="0.7" y="0.7" width="38.6" height="38.6" rx="19.3" stroke="#D8D09E" stroke-width="1.4"/>
<defs>
<clipPath id="clip0_740_3361">
<rect width="40" height="40" rx="20" fill="white"/>
</clipPath>
</defs>
</svg>
