<svg width="20" height="20" viewBox="0 0 20 20" fill="none" xmlns="http://www.w3.org/2000/svg">
<path d="M5.92231 14.0372C8.72831 16.8383 12.1457 19 14.9318 19C16.1845 19 17.2814 18.5637 18.1649 17.5943C18.6794 17.0223 19 16.3536 19 15.6948C19 15.2101 18.8153 14.7448 18.3497 14.4152L15.3784 12.3019C14.9223 11.9917 14.5437 11.8366 14.1941 11.8366C13.7475 11.8366 13.359 12.0889 12.9125 12.5248L12.2232 13.2035C12.1257 13.3019 11.9931 13.3577 11.8545 13.3586C11.6992 13.3586 11.5629 13.3007 11.4564 13.2519C10.8641 12.9322 9.83514 12.05 8.8737 11.1001C7.92222 10.1501 7.03866 9.12283 6.72799 8.52192C6.66093 8.40339 6.62435 8.2701 6.62153 8.134C6.62153 8.00827 6.66005 7.88172 6.76693 7.77543L7.44626 7.06824C7.88369 6.622 8.13596 6.23408 8.13596 5.78825C8.13596 5.43962 7.98062 5.06162 7.66042 4.60587L5.5727 1.66873C5.23303 1.20347 4.75749 1 4.23307 1C3.59226 1 2.92245 1.29074 2.35951 1.84367C1.41755 2.74524 1 3.85939 1 5.09016C1 7.87221 3.12625 11.2457 5.92231 14.0372Z" fill="white"/>
</svg>
