<svg width="32" height="32" viewBox="0 0 32 32" fill="none" xmlns="http://www.w3.org/2000/svg">
<rect x="0.7" y="0.7" width="30.6" height="30.6" rx="15.3" stroke="#D8D09E" stroke-width="1.4"/>
<path d="M18.0991 19.1306C16.5591 17.9628 14.8538 16.5212 12.8584 13.8948L13.9762 12.778C14.6997 12.0551 14.6997 10.8831 13.9762 10.1601L11.3559 7.54219C10.6323 6.81927 9.45916 6.81927 8.73559 7.54219L8.09303 8.18417C6.89166 9.38446 6.64588 11.2647 7.52903 12.7149C11.3446 18.9801 16.2747 22.6442 19.2673 24.466C20.7239 25.3527 22.5918 25.1136 23.7979 23.9086L24.4573 23.2498C25.1809 22.5268 25.1809 21.3548 24.4573 20.6319L21.837 18.0139C21.1135 17.291 19.9403 17.291 19.2167 18.0139L18.0991 19.1306Z" stroke="#D8D09E" stroke-width="1.4" stroke-miterlimit="10"/>
</svg>
