<svg width="20" height="20" viewBox="0 0 20 20" fill="none" xmlns="http://www.w3.org/2000/svg">
<path d="M10.0003 1.66602C14.6028 1.66602 18.3337 5.39685 18.3337 9.99934C18.3337 14.6018 14.6028 18.3327 10.0003 18.3327C8.52765 18.335 7.08088 17.9453 5.80867 17.2035L1.67034 18.3327L2.797 14.1927C2.05458 12.9201 1.66454 11.4727 1.667 9.99934C1.667 5.39685 5.39783 1.66602 10.0003 1.66602ZM7.16033 6.08268L6.99367 6.08935C6.88577 6.09592 6.78032 6.12426 6.68367 6.17268C6.59327 6.22387 6.51075 6.28787 6.43867 6.36268C6.33867 6.45685 6.282 6.53851 6.22117 6.61768C5.91294 7.01843 5.74698 7.51044 5.7495 8.01601C5.75117 8.42434 5.85783 8.82184 6.0245 9.19351C6.36533 9.94518 6.92617 10.741 7.66617 11.4785C7.8445 11.656 8.0195 11.8343 8.20783 12.0002C9.12732 12.8097 10.223 13.3935 11.4078 13.7052L11.8812 13.7777C12.0353 13.786 12.1895 13.7743 12.3445 13.7668C12.5872 13.7543 12.8242 13.6886 13.0387 13.5743C13.1478 13.5181 13.2543 13.457 13.3578 13.391C13.3578 13.391 13.3937 13.3677 13.462 13.316C13.5745 13.2327 13.6437 13.1735 13.737 13.076C13.8062 13.0043 13.8662 12.9202 13.912 12.8243C13.977 12.6885 14.042 12.4293 14.0687 12.2135C14.0887 12.0485 14.0828 11.9585 14.0803 11.9027C14.077 11.8135 14.0028 11.721 13.922 11.6818L13.437 11.4643C13.437 11.4643 12.712 11.1485 12.2687 10.9468C12.2223 10.9266 12.1726 10.915 12.122 10.9127C12.065 10.9068 12.0074 10.9132 11.953 10.9315C11.8987 10.9497 11.8489 10.9794 11.807 11.0185C11.8028 11.0168 11.747 11.0643 11.1445 11.7943C11.1099 11.8408 11.0623 11.8759 11.0077 11.8952C10.953 11.9145 10.8939 11.9171 10.8378 11.9027C10.7835 11.8881 10.7304 11.8697 10.6787 11.8477C10.5753 11.8043 10.5395 11.7877 10.4687 11.7577C9.99039 11.549 9.54757 11.267 9.15616 10.9218C9.05117 10.8302 8.95367 10.7302 8.85367 10.6335C8.52582 10.3195 8.2401 9.96435 8.00367 9.57684L7.9545 9.49768C7.91918 9.44448 7.89063 9.38709 7.8695 9.32684C7.83783 9.20434 7.92033 9.10601 7.92033 9.10601C7.92033 9.10601 8.12283 8.88434 8.217 8.76434C8.30867 8.64768 8.38617 8.53434 8.43617 8.45351C8.5345 8.29518 8.56533 8.13268 8.51367 8.00684C8.28033 7.43684 8.03867 6.86935 7.79033 6.30601C7.74117 6.19435 7.59533 6.11435 7.46283 6.09851C7.41783 6.09351 7.37283 6.08851 7.32783 6.08518C7.21592 6.07962 7.10378 6.08073 6.992 6.08851L7.16033 6.08268Z" fill="white"/>
</svg>
