<svg width="20" height="20" viewBox="0 0 20 20" fill="none" xmlns="http://www.w3.org/2000/svg">
<path fill-rule="evenodd" clip-rule="evenodd" d="M19.5413 4.95602C19.6796 4.50102 19.5413 4.16602 18.8788 4.16602H16.6913C16.1347 4.16602 15.878 4.45518 15.7388 4.77435C15.7388 4.77435 14.6264 7.43768 13.0506 9.16768C12.5406 9.66935 12.3089 9.82852 12.0306 9.82852C11.8914 9.82852 11.6823 9.66935 11.6823 9.21352V4.95602C11.6823 4.40935 11.5289 4.16602 11.0656 4.16602H7.62567C7.27818 4.16602 7.06902 4.41935 7.06902 4.66018C7.06902 5.17768 7.85734 5.29768 7.93817 6.75435V9.91935C7.93817 10.6135 7.81067 10.7393 7.53234 10.7393C6.79069 10.7393 4.98656 8.06352 3.91575 5.00185C3.70826 4.40602 3.49826 4.16602 2.93911 4.16602H0.749984C0.124997 4.16602 0 4.45518 0 4.77435C0 5.34268 0.741651 8.16602 3.45409 11.9002C5.26239 14.4502 7.80817 15.8327 10.1273 15.8327C11.5181 15.8327 11.6898 15.526 11.6898 14.9968V13.0693C11.6898 12.4552 11.8214 12.3327 12.2622 12.3327C12.5872 12.3327 13.1431 12.4927 14.4414 13.7218C15.9247 15.1793 16.1688 15.8327 17.0038 15.8327H19.1913C19.8163 15.8327 20.1296 15.526 19.9496 14.9193C19.7513 14.316 19.0429 13.4402 18.1038 12.401C17.5938 11.8093 16.8288 11.1718 16.5963 10.8527C16.2722 10.4435 16.3647 10.261 16.5963 9.89685C16.5963 9.89685 19.2629 6.20852 19.5404 4.95602" fill="white"/>
</svg>
