<svg width="20" height="20" viewBox="0 0 20 20" fill="none" xmlns="http://www.w3.org/2000/svg">
<path fill-rule="evenodd" clip-rule="evenodd" d="M16.6073 2.60262C16.8122 2.51176 17.0365 2.48042 17.2568 2.51187C17.4771 2.54331 17.6854 2.6364 17.86 2.78144C18.0346 2.92647 18.1691 3.11815 18.2495 3.33653C18.3299 3.55491 18.3533 3.792 18.3172 4.02312L16.4365 16.0415C16.254 17.2008 15.0466 17.8656 14.0375 17.2881C13.1933 16.805 11.9395 16.0607 10.8117 15.2841C10.2479 14.8953 8.52055 13.6504 8.73283 12.7645C8.91527 12.0071 11.8176 9.16087 13.4761 7.46867C14.127 6.80385 13.8302 6.42033 13.0615 7.03186C11.1525 8.55021 8.08769 10.8592 7.07436 11.5092C6.18044 12.0823 5.71441 12.1801 5.15716 12.0823C4.14052 11.904 3.19767 11.628 2.42814 11.2916C1.38828 10.8373 1.43886 9.33123 2.42731 8.89267L16.6073 2.60262Z" fill="white"/>
</svg>
